<svg xmlns="http://www.w3.org/2000/svg">
  <symbol id="email" viewBox="0 0 48 48">
    <path fill="currentColor" fill-rule="evenodd" d="M24 48C10.745 48 0 37.255 0 24S10.745 0 24 0s24 10.745 24 24-10.745 24-24 24m.334-25.347c1.965 0 11.52-5.373 11.52-5.373l.016-.96c0-1.06-.86-1.92-1.923-1.92H14.722a1.92 1.92 0 0 0-1.922 1.92v.855s9.66 5.478 11.534 5.478M12.815 20.16s9.644 5.133 11.52 5.133c2.055 0 11.52-5.133 11.52-5.133l.015 11.52c0 1.06-.86 1.92-1.923 1.92H14.722c-1.06 0-1.922-.86-1.922-1.92z" clip-rule="evenodd"/>
  </symbol>
  <symbol id="telegram" viewBox="0 0 48 48">
    <path fill="currentColor" fill-rule="evenodd" d="M0 24c0 13.255 10.745 24 24 24s24-10.745 24-24S37.255 0 24 0 0 10.745 0 24m19.6 11 .408-6.118 11.129-10.043c.488-.433-.107-.645-.755-.252l-13.735 8.665-5.932-1.851c-1.281-.393-1.29-1.273.287-1.906l23.118-8.914c1.056-.48 2.075.254 1.672 1.87l-3.937 18.552c-.275 1.319-1.071 1.634-2.175 1.025l-5.997-4.431L20.8 34.4l-.027.026c-.322.314-.59.574-1.173.574" clip-rule="evenodd"/>
  </symbol>
  <symbol id="speed-time-fast" viewBox="0 0 100 100">
    <circle cx="50" cy="50" r="50" fill="#e2e2e2"/>
    <g class="t-group-origins" style="transform-origin:center;transform:scale(.58)">
      <path d="M66 22.57V17h7.5a1.5 1.5 0 0 0 0-3h-18a1.5 1.5 0 0 0 0 3H63v5.56a31.81 31.81 0 1 0 3 0Zm-1.65 60.65A28.85 28.85 0 1 1 93.2 54.37a28.88 28.88 0 0 1-28.85 28.85"/>
      <path d="M57.14 73.94A20.93 20.93 0 0 1 43.5 54.37a1.5 1.5 0 0 0-3 0 23.94 23.94 0 0 0 15.6 22.38 1.4 1.4 0 0 0 .52.09 1.5 1.5 0 0 0 .52-2.9m20.03-3.13a20.84 20.84 0 0 1-10 4.22 1.5 1.5 0 0 0 .19 3h.2A23.76 23.76 0 0 0 79 73.17a1.5 1.5 0 1 0-1.85-2.36Zm-7.84-16.44a4.94 4.94 0 0 0-.77-2.63l10.33-10.59a1.5 1.5 0 0 0-2.15-2.09L66.29 49.78a5 5 0 1 0 3 4.59Zm-5 2a2 2 0 1 1 2-2 2 2 0 0 1-1.98 1.99ZM25 55.5a1.5 1.5 0 0 0-1.5-1.5h-18a1.5 1.5 0 0 0 0 3h18a1.5 1.5 0 0 0 1.5-1.5M26.5 68h-18a1.5 1.5 0 0 0 0 3h18a1.5 1.5 0 0 0 0-3m0-29h-18a1.5 1.5 0 0 0 0 3h18a1.5 1.5 0 0 0 0-3"/>
    </g>
  </symbol>
  <symbol id="midnight" viewBox="0 0 100 100">
    <circle fill="#e2e2e2" cx="50" cy="50" r="50"/>
    <g class="t-group-origins" style="transform-origin:center;transform:scale(.58)" fill="#384637">
      <path d="M50.5 6A44.5 44.5 0 1 0 95 50.5 44.55 44.55 0 0 0 50.5 6m0 86A41.5 41.5 0 1 1 92 50.5 41.55 41.55 0 0 1 50.5 92"/>
      <path d="M50.5 12a1.5 1.5 0 0 0-1.5 1.5v6a1.5 1.5 0 0 0 3 0v-6a1.5 1.5 0 0 0-1.5-1.5m0 68a1.5 1.5 0 0 0-1.5 1.5v6a1.5 1.5 0 0 0 3 0v-6a1.5 1.5 0 0 0-1.5-1.5m37-31h-6a1.5 1.5 0 0 0 0 3h6a1.5 1.5 0 0 0 0-3m-68 0h-6a1.5 1.5 0 0 0 0 3h6a1.5 1.5 0 0 0 0-3m31-22a1.5 1.5 0 0 0-1.5 1.5v23a1.5 1.5 0 0 0 3 0v-23a1.5 1.5 0 0 0-1.5-1.5"/>
    </g>
  </symbol>
  <symbol id="hours-round-time" viewBox="0 0 100 100">
    <circle fill="#e2e2e2" cx="50" cy="50" r="50"/>
    <g class="t-group-origins" style="transform-origin:center;transform:scale(.58)" fill="#384637">
      <path d="M67 50.5a1.5 1.5 0 0 0-1.5-1.5H52V28.5a1.5 1.5 0 0 0-3 0v22a1.5 1.5 0 0 0 1.5 1.5h15a1.5 1.5 0 0 0 1.5-1.5"/>
      <path d="M15.27 44.31a1.5 1.5 0 0 0 .65-.15L28.54 38a1.5 1.5 0 0 0-1.31-2.69L17.64 40a34.51 34.51 0 0 1 65.81.26 34 34 0 0 1 .93 3.74 1.51 1.51 0 0 0 1.47 1.21h.29a1.52 1.52 0 0 0 1.19-1.76 36 36 0 0 0-1-4A37.32 37.32 0 0 0 50.5 13a37.7 37.7 0 0 0-35.59 25.66l-4.45-9.12a1.5 1.5 0 1 0-2.69 1.31l6.15 12.62a1.5 1.5 0 0 0 1.35.84M93.39 71l-6.16-12.66a1.5 1.5 0 0 0-2-.69L72.61 63.8a1.5 1.5 0 0 0 1.32 2.7L83 62.07A34.5 34.5 0 0 1 16.6 57a1.5 1.5 0 1 0-3 .56A37.51 37.51 0 0 0 86 62.64l4.7 9.63a1.49 1.49 0 0 0 1.35.85 1.4 1.4 0 0 0 .65-.16 1.5 1.5 0 0 0 .69-1.96"/>
      <path d="M49 72.5v7a1.5 1.5 0 0 0 3 0v-7a1.5 1.5 0 0 0-3 0m-15.09-8.04-4.95 5a1.51 1.51 0 0 0 2.13 2.13l4.95-5a1.51 1.51 0 0 0-2.13-2.13"/>
    </g>
  </symbol>
  <symbol id="time-hours" viewBox="0 0 100 100">
    <circle fill="#e2e2e2" cx="50" cy="50" r="50"/>
    <g class="t-group-origins" style="transform-origin:center;transform:scale(.58)" fill="#384637">
      <path d="M16.967 59.01H29.21a1.5 1.5 0 1 0 0-3H18.76c.202-.87.501-1.849.903-2.517.732-1.221 2.689-2.798 3.425-3.335.944-.742 1.799-1.305 2.553-1.802 2.046-1.349 3.814-2.513 3.814-5.452a6.88 6.88 0 0 0-6.871-6.871c-3.791 0-6.875 3.083-6.875 6.871a1.5 1.5 0 1 0 3 0 3.877 3.877 0 0 1 3.875-3.871 3.875 3.875 0 0 1 3.871 3.871c0 1.271-.511 1.66-2.464 2.947-.764.503-1.714 1.129-2.712 1.915-.305.222-3.011 2.222-4.188 4.183-1.184 1.97-1.574 5.042-1.614 5.386a1.5 1.5 0 0 0 1.49 1.675"/>
      <path d="M31.911 53.514h7.784v4.108a1.5 1.5 0 1 0 3 0v-4.108h2.352a1.5 1.5 0 1 0 0-3h-2.352V37.65a1.5 1.5 0 0 0-2.76-.814L30.651 51.2a1.501 1.501 0 0 0 1.26 2.314m7.784-10.78v7.78h-5.028zm9.515 26.502a1.5 1.5 0 0 0 1.854-1.03l9.429-33.003a1.499 1.499 0 1 0-2.884-.824L48.18 67.381a1.5 1.5 0 0 0 1.03 1.855m17.992-29.154h9.767l-4.162 7.06H68.89a1.5 1.5 0 1 0 0 3h2.148l-4.594 7.792a1.5 1.5 0 1 0 2.584 1.524l5.492-9.315h3.764a1.5 1.5 0 1 0 0-3h-1.995l4.598-7.798a1.5 1.5 0 0 0 .011-1.506 1.5 1.5 0 0 0-1.303-.756H67.202a1.5 1.5 0 1 0 0 2.999"/>
      <path d="M95.75 18.618H3.767a1.5 1.5 0 0 0-1.5 1.5v59.995a1.5 1.5 0 0 0 1.5 1.5H95.75a1.5 1.5 0 0 0 1.5-1.5V20.118a1.5 1.5 0 0 0-1.5-1.5m-1.5 59.995H5.267V21.618H94.25z"/>
    </g>
  </symbol>
  <symbol id="aenpphe-logo" viewBox="0 0 500 550" style="stroke:#fff;stroke-width:15">
    <path fill="#284671" d="m259.059 250.28 234.61-118.36-234.61-118.35-234.61 118.36V318.6c0 3.34-1.8 6.43-4.71 8.07l-.2.11c-7.99 5.05-14.14 13.12-13.09 23.25l5.94 57.37h9.48l-3.7-50.12a5.606 5.606 0 1 1 11.19-.66l2.25 50.79h8.5l2.25-50.79a5.606 5.606 0 1 1 11.19.66l-3.7 50.12h9.49l5.94-57.37c1.09-10.51-4.94-18.54-13.85-23.72v-.05c-2.48-1.64-4.03-4.34-4.15-7.32V143.45l211.77 106.83z"/>
    <path fill="#688d6d" d="M208.099 468.74c0-27.8 11.99-51.74 29.3-62.83 6.19-3.97 9.62-11.09 9.62-18.43v-41.3c0-5.87-.36-11.74-1.35-17.53-4.72-27.77-18.26-53.53-39.33-72.73-28.65-26.12-66.75-42.06-108.58-42.06v161.29c0 84.72 65.33 154.13 148.35 160.73-21.86-7.82-38.01-34.87-38.01-67.14"/>
    <path fill="#f6c133" d="M311.099 255.92c-26.57 24.23-41.22 58.87-41.22 94.83 0 0 .05 36.73.07 37.12 41.63-.13 79.54-16.03 108.07-42.05 26.57-24.23 41.22-58.87 41.22-94.83v-37.12c-41.66.11-79.59 16.01-108.14 42.05m0 148.58c-5.56 5.07-10.57 10.63-15.06 16.53 8.65 12.44 13.98 29.22 13.98 47.72 0 33.03-16.92 60.63-39.57 67.68 41.44-.25 79.16-16.12 107.58-42.03 26.57-24.23 41.22-58.87 41.22-94.83v-37.12c-41.66.11-79.59 16.01-108.14 42.05z"/>
  </symbol>
  <symbol id="nutrition-pro-logo" fill="none" viewBox="0 0 298 52">
    <path fill="#00878d" fill-rule="evenodd" d="M297.423 10.31a10.44 10.44 0 0 0-6.266-6.267c-1.703-.606-3.84-.606-8.1-.606h-59.47c-4.331 0-6.396 0-8.099.606a10.44 10.44 0 0 0-6.266 6.267c-.607 1.704-.607 3.842-.607 8.102v11.552c0 4.26 0 6.397.607 8.101a10.37 10.37 0 0 0 6.266 6.253c1.703.62 3.84.62 8.099.62h59.398c4.259 0 6.396 0 8.1-.62a10.36 10.36 0 0 0 6.338-6.195c.607-1.704.607-3.841.607-8.101V18.469c-.029-4.317-.029-6.455-.607-8.159" clip-rule="evenodd"/>
    <path fill="currentColor" d="M218.172 38.31a.93.93 0 0 1-.679-.274.97.97 0 0 1-.274-.679V11.552a1 1 0 0 1 .274-.707.93.93 0 0 1 .679-.275h10.626a13.7 13.7 0 0 1 5.385.982 7.6 7.6 0 0 1 3.567 2.888 8.83 8.83 0 0 1 1.27 4.896 8.66 8.66 0 0 1-1.27 4.895 7.6 7.6 0 0 1-3.567 2.888c-1.714.67-3.544.994-5.385.953h-5.905v9.271a.96.96 0 0 1-.26.679.9.9 0 0 1-.693.274zm4.634-14.628h5.776a5.14 5.14 0 0 0 3.522-1.083 4.1 4.1 0 0 0 1.242-3.234 4.47 4.47 0 0 0-1.155-3.192 4.76 4.76 0 0 0-3.609-1.213h-5.776zm20.503 14.628a.94.94 0 0 1-.953-.953V11.552a.96.96 0 0 1 .275-.707.9.9 0 0 1 .678-.275h10.266c2.7-.15 5.37.63 7.565 2.21a7.82 7.82 0 0 1 2.772 6.47 7.9 7.9 0 0 1-1.444 4.866 8.1 8.1 0 0 1-3.869 2.815l5.775 10.109c.07.139.11.292.116.447a.8.8 0 0 1-.26.592.8.8 0 0 1-.563.231h-3.61a1.44 1.44 0 0 1-1.039-.346 3.4 3.4 0 0 1-.549-.722l-5.111-9.386h-5.515v9.501a.95.95 0 0 1-.26.68.9.9 0 0 1-.693.273zm4.548-14.945h5.588a5.2 5.2 0 0 0 3.609-1.083 3.97 3.97 0 0 0 1.198-3.076 4.17 4.17 0 0 0-1.169-3.105 5.02 5.02 0 0 0-3.638-1.14h-5.588zm30.797 15.35a14.4 14.4 0 0 1-6.064-1.17 8.8 8.8 0 0 1-3.97-3.61 13 13 0 0 1-1.516-6.08V21.07a12.23 12.23 0 0 1 1.588-6.022 9.4 9.4 0 0 1 4.028-3.654 13.8 13.8 0 0 1 5.934-1.285c2.063-.039 4.11.38 5.992 1.228a9.43 9.43 0 0 1 4.042 3.653 12.24 12.24 0 0 1 1.574 6.022c0 1.17.087 2.296.087 3.408s0 2.238-.087 3.379a12.6 12.6 0 0 1-1.502 6.137 8.78 8.78 0 0 1-3.984 3.61 14.4 14.4 0 0 1-6.122 1.17m0-4.563a5.86 5.86 0 0 0 4.201-1.531 6.9 6.9 0 0 0 1.747-4.968v-6.426a8.7 8.7 0 0 0-.851-3.74 4.8 4.8 0 0 0-2.08-2.108 6.7 6.7 0 0 0-3.017-.65 6.6 6.6 0 0 0-2.974.65 4.8 4.8 0 0 0-2.079 2.108 8.5 8.5 0 0 0-.852 3.74v6.426a6.85 6.85 0 0 0 1.747 4.967 5.78 5.78 0 0 0 4.158 1.532M.954 38.31a.93.93 0 0 1-.679-.274.9.9 0 0 1-.274-.679V11.552a.95.95 0 0 1 .585-.915.9.9 0 0 1 .368-.067H4c.295-.022.588.065.823.246q.179.184.332.39l11.406 17.747v-17.4a1 1 0 0 1 .26-.708.9.9 0 0 1 .693-.275h3.335a.92.92 0 0 1 .708.275.95.95 0 0 1 .288.707V37.33a.95.95 0 0 1-.288.707.87.87 0 0 1-.665.274h-3.09a.98.98 0 0 1-.793-.274 2.7 2.7 0 0 0-.361-.36L5.27 20.345v17.04a.9.9 0 0 1-.275.679.95.95 0 0 1-.722.274zm33.249.405a7.74 7.74 0 0 1-4.187-1.098 7.1 7.1 0 0 1-2.714-3.09 10.9 10.9 0 0 1-.939-4.736V18.657a.9.9 0 0 1 .275-.679.9.9 0 0 1 .664-.274h3.494a.9.9 0 0 1 .693.274.95.95 0 0 1 .26.679V29.56q0 4.923 4.331 4.91a4.23 4.23 0 0 0 3.263-1.257 5.13 5.13 0 0 0 1.199-3.596v-10.96a.9.9 0 0 1 .288-.679.87.87 0 0 1 .665-.274h3.494a.87.87 0 0 1 .664.274.9.9 0 0 1 .288.679V37.43a.9.9 0 0 1-.288.678.87.87 0 0 1-.664.275h-3.22a.9.9 0 0 1-.693-.275.94.94 0 0 1-.246-.678v-1.69a7.8 7.8 0 0 1-2.656 2.18 9 9 0 0 1-3.97.795m25.281-.405a8.8 8.8 0 0 1-3.999-.765 5.3 5.3 0 0 1-2.411-2.484 9.36 9.36 0 0 1-.794-4.1v-9.055H49.09a.98.98 0 0 1-.679-.274.93.93 0 0 1-.274-.679v-2.296a.9.9 0 0 1 .274-.679.93.93 0 0 1 .679-.274h3.133v-6.585a.97.97 0 0 1 .26-.679.95.95 0 0 1 .75-.332h3.206c.253 0 .496.1.679.275a.92.92 0 0 1 .274.678v6.585h4.952a.92.92 0 0 1 .679.275.9.9 0 0 1 .274.678v2.296a.92.92 0 0 1-.274.679.98.98 0 0 1-.679.274h-4.952v8.665a4.7 4.7 0 0 0 .577 2.541 2.17 2.17 0 0 0 1.993.91h2.743a.92.92 0 0 1 .664.274.94.94 0 0 1 .289.679v2.455a.9.9 0 0 1-.289.678.87.87 0 0 1-.664.275zm7.652 0a.87.87 0 0 1-.664-.274.9.9 0 0 1-.29-.679V18.686a.95.95 0 0 1 .29-.708.87.87 0 0 1 .664-.274h3.22a.98.98 0 0 1 .692.274.95.95 0 0 1 .29.708v1.632a6 6 0 0 1 2.367-1.95 7.8 7.8 0 0 1 3.35-.664h1.617a.9.9 0 0 1 .693.274.95.95 0 0 1 .26.679v2.888a.95.95 0 0 1-.26.679.9.9 0 0 1-.693.274h-3.09a4 4 0 0 0-2.96 1.069 4.04 4.04 0 0 0-1.04 2.888v10.902a.97.97 0 0 1-.274.68.98.98 0 0 1-.721.273zm15.377-24.014a.897.897 0 0 1-.953-.953v-2.888a.97.97 0 0 1 .26-.679.95.95 0 0 1 .692-.274h3.61a1.04 1.04 0 0 1 .722.274.98.98 0 0 1 .274.679v2.888a.95.95 0 0 1-.274.693c-.198.177-.457.27-.722.26zm.158 24.015a.87.87 0 0 1-.664-.275.9.9 0 0 1-.289-.679v-18.7a.9.9 0 0 1 .29-.679.87.87 0 0 1 .663-.274h3.292a.9.9 0 0 1 .693.274.95.95 0 0 1 .26.679V37.43a.95.95 0 0 1-.26.678.9.9 0 0 1-.693.275zm17.845-.001a8.8 8.8 0 0 1-4.014-.765 5.36 5.36 0 0 1-2.41-2.484 9.36 9.36 0 0 1-.795-4.1v-9.055h-3.133a.92.92 0 0 1-.65-.245.94.94 0 0 1-.288-.68v-2.324a.9.9 0 0 1 .288-.679.87.87 0 0 1 .665-.274h3.133v-6.585a.97.97 0 0 1 .26-.679.95.95 0 0 1 .678-.332h3.205a.97.97 0 0 1 .679.275.92.92 0 0 1 .274.678v6.585h4.952a.937.937 0 0 1 .953.953v2.296a.93.93 0 0 1-.274.679.97.97 0 0 1-.679.274h-4.952v8.665a4.7 4.7 0 0 0 .578 2.541 2.18 2.18 0 0 0 2.007.91h2.728a.937.937 0 0 1 .953.953v2.455a.97.97 0 0 1-.274.678.92.92 0 0 1-.679.275zm7.479-24.014a.94.94 0 0 1-.693-.26 1 1 0 0 1-.246-.693v-2.888c-.003-.249.084-.49.246-.679a.95.95 0 0 1 .693-.274h3.609c.267-.005.526.093.722.274a.98.98 0 0 1 .275.679v2.888a.96.96 0 0 1-.275.693c-.198.177-.456.27-.722.26zm.159 24.015a.9.9 0 0 1-.665-.275.9.9 0 0 1-.274-.679v-18.7a.9.9 0 0 1 .274-.679.9.9 0 0 1 .665-.274h3.291a.9.9 0 0 1 .694.274.95.95 0 0 1 .259.679V37.43a.95.95 0 0 1-.259.678.9.9 0 0 1-.694.274zm66.069-.001a.9.9 0 0 1-.664-.274.9.9 0 0 1-.274-.679v-18.7a.9.9 0 0 1 .274-.679.9.9 0 0 1 .664-.274h3.263a.9.9 0 0 1 .664.274q.136.134.209.31a.9.9 0 0 1 .065.369v1.56a8.8 8.8 0 0 1 2.643-2.123 8.5 8.5 0 0 1 3.985-.852 7.8 7.8 0 0 1 4.201 1.097 7.2 7.2 0 0 1 2.772 3.134 10.6 10.6 0 0 1 .967 4.75v11.134a.9.9 0 0 1-.274.68.92.92 0 0 1-.678.273h-3.494a.9.9 0 0 1-.665-.274.9.9 0 0 1-.274-.679V26.455a5.24 5.24 0 0 0-1.141-3.596 4.04 4.04 0 0 0-3.263-1.314 4.33 4.33 0 0 0-3.291 1.314 5 5 0 0 0-1.228 3.596v10.902a.9.9 0 0 1-.274.679.92.92 0 0 1-.679.274zm-32.371 13.676c-1.992 0-4.851-1.444-7.219-8.044a56.9 56.9 0 0 1-2.527-17.95 56.8 56.8 0 0 1 2.585-17.949C137.002 1.444 139.861 0 141.853 0c1.993 0 4.851 1.444 7.219 8.043a56.7 56.7 0 0 1 2.527 17.95 56.8 56.8 0 0 1-2.585 17.964c-2.31 6.584-5.168 8.029-7.161 8.029m0-49.748c-3.552 0-7.508 9.748-7.508 23.74 0 13.993 3.956 23.755 7.508 23.755s7.508-9.747 7.508-23.755-3.956-23.725-7.508-23.725z"/>
    <path fill="currentColor" d="M157.374 39.552h-1.732a56.7 56.7 0 0 1-17.571-4.49 57.3 57.3 0 0 1-15.593-9.271c-5.241-4.68-5.443-7.856-4.678-9.704s3.162-3.943 10.106-3.538a56.8 56.8 0 0 1 17.572 4.505 56.6 56.6 0 0 1 15.593 9.27c5.255 4.68 5.443 7.857 4.677 9.705-.765 1.848-2.598 3.523-8.374 3.523m-31.056-24.866c-3.494 0-5.775.78-6.396 2.21-1.357 3.277 6.136 10.67 19.058 16.028s23.448 5.459 24.805 2.18c1.357-3.277-6.122-10.67-19.058-16.043a51.2 51.2 0 0 0-18.409-4.375"/>
    <path fill="currentColor" d="M125.61 41.646c-3.768 0-5.472-1.343-6.222-2.657-.997-1.718-1.228-4.895 3.378-10.21a57.3 57.3 0 0 1 14.25-11.234 57.3 57.3 0 0 1 16.85-6.73c6.901-1.328 9.543.463 10.539 2.181.996 1.719 1.227 4.91-3.378 10.224a56.7 56.7 0 0 1-14.251 11.22 57.2 57.2 0 0 1-16.834 6.744 23.5 23.5 0 0 1-4.332.462m32.529-29.054c-4.504 0-11.882 2.195-20.04 6.903-12.113 7.003-18.581 15.306-16.82 18.382s12.2 1.618 24.314-5.386c12.113-7.004 18.596-15.292 16.834-18.368-.592-1.011-2.093-1.53-4.288-1.53"/>
    <path fill="#00878d" d="M146.051 26.988a4.318 4.318 0 1 0-8.405-1.984 4.318 4.318 0 0 0 8.405 1.984"/>
    <path fill="#45b5b7" d="M163.539 24.332a2.68 2.68 0 0 1 1.649-2.468 2.67 2.67 0 0 1 3.642 1.947 2.674 2.674 0 0 1-2.62 3.193 2.67 2.67 0 0 1-2.671-2.672m-32.037-9.892a2.67 2.67 0 0 1 3.183-2.636 2.672 2.672 0 1 1-3.183 2.636"/>
    <path fill="#e2e1e1" d="M116.211 28.029a1.45 1.45 0 0 1 .891-1.334 1.443 1.443 0 1 1-.891 1.334m35.965 14.773a1.44 1.44 0 0 1 1.725-1.417 1.45 1.45 0 0 1 1.135 1.135 1.445 1.445 0 1 1-2.86.281"/>
  </symbol>
</svg>